<?xml version="1.0" encoding="utf-8"?>
<!-- Generator: Adobe Illustrator 26.3.1, SVG Export Plug-In . SVG Version: 6.00 Build 0)  -->
<svg version="1.1" id="图层_1" xmlns="http://www.w3.org/2000/svg" xmlns:xlink="http://www.w3.org/1999/xlink" x="0px" y="0px"
	 viewBox="0 0 470.02 539.87" style="enable-background:new 0 0 470.02 539.87;" xml:space="preserve">
<style type="text/css">
	.st0{opacity:0.7;fill:none;stroke:#8FC31F;stroke-width:6;stroke-miterlimit:10;}
	.st1{fill:#3E3A39;}
	.st2{font-family:'FZCHSJW--GB1-0';}
	.st3{font-size:55px;}
	.st4{fill:none;stroke:#036EB8;stroke-width:3;stroke-linejoin:round;stroke-miterlimit:10;}
	.st5{fill:#040000;stroke:#036EB8;stroke-width:3;stroke-miterlimit:10;}
	.st6{fill:#036EB8;stroke:#036EB8;stroke-width:3;stroke-linejoin:round;stroke-miterlimit:10;}
	.st7{fill:#9FA0A0;}
	.st8{fill:#4456A5;}
	.st9{fill:#8FC31F;}
	.st10{fill:#F8B62D;}
	.st11{fill:#729757;}
	.st12{fill:#E9E085;}
	.st13{fill:#009A3E;}
	.st14{fill:#EA5514;}
	.st15{fill:#E60012;}
	.st16{fill:#727171;}
	.st17{fill:#FFFFFF;stroke:#3E3A39;stroke-width:0.25;stroke-linejoin:round;stroke-miterlimit:10;}
	.st18{fill:#3E3A39;stroke:#727171;stroke-width:0.05;stroke-linejoin:round;stroke-miterlimit:10;}
</style>
<polygon class="st0" points="465.48,402.12 465.48,136.22 235.21,3.27 4.94,136.22 4.94,402.12 235.21,535.07 "/>
<text transform="matrix(1 0 0 1 86.374 156.414)" class="st1 st2 st3">BioSeqUtils</text>
<polyline class="st4" points="33.66,296.82 22.55,276.14 33.56,270.22 "/>
<polygon class="st5" points="25.15,291.56 33.66,296.82 33.97,286.82 "/>
<polygon class="st6" points="25.15,291.56 33.66,296.82 33.97,286.82 "/>
<g>
	<g>
		<path class="st7" d="M72.23,301.68c-0.01-0.01-0.02-0.03-0.03-0.04c-0.24-0.31-0.49-0.62-0.73-0.93
			c-0.21-0.27-0.42-0.55-0.64-0.82c-8.2-10.61-15.6-22.26-22.06-34.93c-4.28,1.51-8.55,3.02-12.83,4.53
			c6.89,13.52,14.79,25.95,23.54,37.28c0.23,0.29,0.45,0.58,0.68,0.87c0.26,0.33,0.52,0.66,0.78,0.99c0.01,0.02,0.02,0.03,0.04,0.05
			c-3.75,2.33-7.5,4.67-11.25,7c1.8,2.28,3.63,4.52,5.49,6.71c3.64-2.47,7.29-4.93,10.93-7.4c3.64-2.47,7.29-4.93,10.93-7.4
			c3.65-2.47,7.29-4.94,10.94-7.4c-1.53-1.8-3.04-3.64-4.52-5.52C79.74,297.01,75.99,299.35,72.23,301.68z"/>
		<path class="st7" d="M88.36,319.87c-3.39,2.74-6.78,5.48-10.17,8.22c-3.39,2.74-6.78,5.48-10.17,8.22
			c2.51,2.52,5.06,4.97,7.65,7.35c3.24-2.88,6.48-5.77,9.72-8.65c3.24-2.88,6.48-5.77,9.72-8.65c3.24-2.89,6.49-5.78,9.73-8.66
			c-2.13-1.96-4.23-3.97-6.29-6.04C95.14,314.38,91.75,317.12,88.36,319.87z"/>
		<path class="st7" d="M430.77,264.96c-20.08,39.4-49.29,68.85-83.04,88.36c-0.01,0.01-0.03,0.02-0.04,0.03
			c-0.03,0.02-0.06,0.03-0.09,0.05c-0.01,0.01-0.02,0.01-0.03,0.02c-2.42-3.49-4.83-6.99-7.25-10.48c-1.92,1.1-3.85,2.17-5.79,3.21
			c2.28,3.57,4.55,7.14,6.83,10.71c2.27,3.57,4.55,7.14,6.82,10.7c2.27,3.57,4.55,7.14,6.82,10.7c2.37-1.26,4.71-2.56,7.04-3.9
			c-2.41-3.49-4.83-6.98-7.24-10.47c0.01-0.01,0.02-0.01,0.03-0.02c0.03-0.02,0.06-0.04,0.09-0.05c0.02-0.01,0.03-0.02,0.05-0.03
			c36.01-20.82,67.19-52.25,88.62-94.29c0,0,0,0,0,0C439.32,267.98,435.05,266.47,430.77,264.96
			C430.77,264.96,430.77,264.96,430.77,264.96z"/>
		<path class="st7" d="M66.18,315.03c3.85,4.53,7.84,8.87,11.96,13.01c3.39-2.74,6.78-5.48,10.17-8.22
			c-3.86-3.88-7.6-7.95-11.21-12.19C73.47,310.1,69.82,312.57,66.18,315.03z"/>
		<path class="st7" d="M321.06,352.66c-2.55,1.12-5.12,2.18-7.71,3.19c1.77,3.81,3.54,7.61,5.3,11.42
			c-23.06,8.98-47.46,13.85-71.97,14.62c-0.15-4.13-0.31-8.26-0.46-12.39c-18.14,0.57-36.34-1.27-54.04-5.51
			c-1.14,4-2.29,8-3.43,11.99c-34.13-8.19-66.52-24.72-93.62-49.61c-3.24,2.89-6.48,5.77-9.72,8.66
			c28.92,26.56,63.48,44.2,99.9,52.94c-1.14,4-2.29,8-3.43,12c21.53,5.16,43.67,7.4,65.72,6.71c-0.15-4.13-0.31-8.26-0.46-12.39
			c26.16-0.82,52.2-6.02,76.81-15.6c1.77,3.8,3.53,7.6,5.3,11.4c3.15-1.23,6.28-2.52,9.38-3.88c-1.95-3.72-3.9-7.45-5.85-11.17
			c5.19-2.28,10.31-4.76,15.35-7.44c-2.27-3.57-4.55-7.14-6.82-10.71c-4.72,2.51-9.52,4.83-14.38,6.97
			C324.97,360.12,323.01,356.39,321.06,352.66z"/>
	</g>
</g>
<rect x="99.99" y="279.6" class="st8" width="13.65" height="14.05"/>
<rect x="99.99" y="279.6" class="st9" width="10.62" height="14.05"/>
<rect x="301.71" y="279.6" class="st8" width="87.5" height="14.05"/>
<rect x="306.86" y="279.6" class="st10" width="82.36" height="14.05"/>
<rect x="110.64" y="279.6" class="st11" width="0.07" height="14.05"/>
<rect x="306.75" y="279.6" class="st12" width="0.07" height="14.05"/>
<rect x="115.92" y="279.6" class="st7" width="185.75" height="14.05"/>
<rect x="110.64" y="265.55" class="st13" width="5.39" height="42.16"/>
<rect x="158.8" y="265.55" class="st14" width="16.1" height="42.16"/>
<rect x="301.71" y="265.55" class="st15" width="5.01" height="42.16"/>
<g>
	<path class="st10" d="M246.58,190.41c0,0,17.2,23.77,17.91,33.79c0.04,0.54,0.18,2.06-0.76,2.79c-0.51,0.4-1.2,0.45-1.85,0.49
		c-2.03,0.11-4.25,0.17-5.89-1.03c-1.35-0.99-2.01-2.64-2.62-4.19c-1.38-3.57-2.76-7.14-4.15-10.71
		c-1.01,10.2-0.44,17.61,0.37,22.74c0.41,2.63,1.35,7.61-1.39,11.06c-0.4,0.51-2.08,2.73-4.39,2.48c-1.79-0.2-3.37-1.49-4.12-3.13
		c-0.65-1.41-0.72-3-0.78-4.55c-0.31-8.72-0.18-17.46,0.39-26.16c-3.19,13.13-5.43,22.54-6.11,26.51c0,0-0.42,2.46-2.08,5.6
		c-1.39,2.62-2.34,3.15-3.07,3.32c-1.22,0.28-2.44-0.3-3.03-0.76c-2.94-2.28-0.31-9.53,0.76-16.26c0.78-4.92,1.09-11.86-1.02-20.67
		c-3.76,10.05-5.06,16.46-5.53,20.52c-0.27,2.34-0.77,4.65-1.1,6.98c-0.85,6.05-0.95,8.73-2.71,9.58c-1.12,0.54-2.55,0.19-3.46-0.33
		c-3.78-2.17-2.79-9.82-2.07-22.7c0.27-4.72,0.59-11.8,0.69-20.58c-1.92,2.47-3.64,4.56-5.04,6.21c-4.94,5.83-6.45,6.91-8.32,7
		c-1.26,0.06-3.26-0.31-4.16-1.7c-1.56-2.42,1.05-6.6,4.37-11.78c2.99-4.67,5.76-7.85,6.29-8.43c6.75-7.35,14.61-14.16,24.16-17.06
		c1.32-0.4,2.31-0.51,2.7-0.5c1.77,0.01,3.08,0.7,3.59,0.96C241.86,183.88,246.58,190.41,246.58,190.41z"/>
	<g>
		<path class="st16" d="M246.37,190.54c3.21,4.45,6.22,9.06,9.06,13.75c2.22,3.67,4.34,7.42,6.12,11.33
			c0.77,1.69,1.48,3.42,2.01,5.2c0.45,1.49,1.07,3.53,0.59,5.08c-0.59,1.88-4.51,1.53-6.03,1.19c-1.95-0.43-3.12-1.78-3.92-3.52
			c-1.79-3.91-3.16-8.08-4.71-12.09c-0.1-0.27-0.46-0.22-0.49,0.07c-0.48,5-0.68,10.03-0.42,15.05c0.18,3.52,0.82,6.94,1.17,10.43
			c0.22,2.22,0.18,4.58-0.78,6.63c-0.71,1.53-2.09,3.23-3.75,3.77c-2.97,0.95-5.34-2.01-5.81-4.6c-0.52-2.86-0.34-5.95-0.37-8.85
			c-0.08-6.67,0.1-13.34,0.53-19.99c0.02-0.28-0.42-0.34-0.49-0.07c-2.17,8.94-4.2,17.89-6.18,26.87c-0.56,2.53-1.67,5.37-3.38,7.34
			c-1.72,1.99-4.78,1-5.4-1.48c-0.65-2.6,0.2-5.62,0.73-8.17c0.56-2.67,1.15-5.34,1.46-8.05c0.73-6.28,0.15-12.62-1.3-18.76
			c-0.06-0.26-0.4-0.22-0.48,0c-2.07,5.55-3.93,11.24-5,17.07c-0.47,2.53-0.74,5.09-1.17,7.63c-0.53,3.08-0.75,6.23-1.41,9.28
			c-0.18,0.83-0.39,1.78-0.97,2.43c-1.04,1.17-2.98,0.82-4.14,0.01c-1.33-0.92-1.82-2.59-2.07-4.11c-0.39-2.32-0.31-4.73-0.23-7.08
			c0.12-3.4,0.38-6.79,0.57-10.18c0.42-7.17,0.66-14.35,0.74-21.53c0-0.2-0.29-0.35-0.43-0.18c-2.43,3.11-4.91,6.2-7.57,9.12
			c-1.29,1.42-2.87,3.4-4.83,3.9c-1.16,0.29-2.58,0.1-3.61-0.48c-1.66-0.93-1.74-2.61-1.25-4.25c0.54-1.79,1.53-3.46,2.49-5.05
			c1.13-1.88,2.32-3.74,3.57-5.54c3.73-5.38,8.26-10.17,13.31-14.34c3.03-2.5,6.29-4.74,9.82-6.48c3.13-1.54,7.23-3.58,10.74-2.24
			c3.52,1.35,6.77,4.05,9.46,6.64C243.9,187.6,245.25,189,246.37,190.54c0.19,0.26,0.62,0.01,0.43-0.25
			c-3.19-4.38-7.76-8.21-12.57-10.66c-3.23-1.64-6.3-0.65-9.49,0.64c-3.94,1.59-7.57,3.83-10.93,6.42
			c-5.64,4.36-10.7,9.57-14.79,15.41c-1.43,2.04-2.77,4.14-4.04,6.28c-0.95,1.59-1.93,3.27-2.4,5.08c-0.73,2.78,0.8,4.83,3.67,5.15
			c2.17,0.24,3.71-0.87,5.22-2.32c3.42-3.31,6.38-7.18,9.3-10.92c-0.14-0.06-0.28-0.12-0.43-0.18c-0.08,6.87-0.3,13.73-0.69,20.58
			c-0.21,3.71-0.49,7.41-0.63,11.13c-0.09,2.43-0.16,4.92,0.26,7.32c0.26,1.49,0.77,3.07,1.98,4.06c1.38,1.14,3.83,1.58,5.1,0.08
			c1.35-1.58,1.37-4.34,1.63-6.27c0.48-3.6,1.11-7.17,1.6-10.77c0.92-6.7,3.05-13.22,5.4-19.54c-0.16,0-0.32,0-0.48,0
			c1.46,6.19,2.02,12.59,1.25,18.92c-0.38,3.13-1.15,6.18-1.74,9.27c-0.44,2.3-1.11,5.13-0.21,7.41c0.67,1.7,2.78,2.8,4.55,2.19
			c1.94-0.67,3.01-3.3,3.76-5c1.41-3.23,1.83-6.79,2.59-10.2c1.52-6.8,3.18-13.56,4.83-20.33c-0.16-0.02-0.33-0.04-0.49-0.07
			c-0.43,6.74-0.61,13.49-0.53,20.24c0.04,2.92-0.17,6.07,0.43,8.94c0.43,2.06,1.71,3.93,3.75,4.66c3.88,1.38,6.85-3.07,7.43-6.34
			c0.69-3.84-0.49-7.81-0.84-11.63c-0.57-6.09-0.4-12.22,0.19-18.31c-0.16,0.02-0.33,0.04-0.49,0.07c1.47,3.81,2.88,7.65,4.43,11.43
			c1.14,2.78,2.84,4.51,5.94,4.72c2.37,0.15,5.32,0.23,5.4-2.79c0.04-1.62-0.41-3.27-0.9-4.8c-1.36-4.24-3.48-8.24-5.66-12.1
			c-2.24-3.97-4.67-7.83-7.19-11.63c-1.37-2.07-2.77-4.13-4.23-6.14C246.61,190.03,246.18,190.27,246.37,190.54z"/>
	</g>
</g>
<ellipse class="st17" cx="217.36" cy="196.84" rx="6.37" ry="3.77"/>
<circle class="st18" cx="217.36" cy="196.84" r="1.89"/>
<ellipse class="st17" cx="241.44" cy="199.25" rx="6.37" ry="3.77"/>
<circle class="st18" cx="241.44" cy="199.25" r="1.89"/>
</svg>
